<mxfile host="app.diagrams.net" modified="2024-04-30T07:45:53.423Z" agent="Mozilla/5.0 (Windows NT 10.0; Win64; x64) AppleWebKit/537.36 (KHTML, like Gecko) Chrome/124.0.0.0 Safari/537.36 Edg/124.0.0.0" etag="tRYT7_vI8GhhtYEtL798" version="24.3.1" type="github" pages="2">
  <diagram id="6a731a19-8d31-9384-78a2-239565b7b9f0" name="php应用">
    <mxGraphModel dx="1678" dy="893" grid="1" gridSize="10" guides="1" tooltips="1" connect="1" arrows="1" fold="1" page="1" pageScale="1" pageWidth="1169" pageHeight="827" background="none" math="0" shadow="0">
      <root>
        <mxCell id="0" />
        <mxCell id="1" parent="0" />
        <mxCell id="NRmDLluQtz4o5GjEV-Sm-1" value="" style="rounded=0;whiteSpace=wrap;html=1;" vertex="1" parent="1">
          <mxGeometry x="110" y="80" width="910" height="950" as="geometry" />
        </mxCell>
        <mxCell id="NRmDLluQtz4o5GjEV-Sm-2" value="客户端" style="rounded=0;whiteSpace=wrap;html=1;" vertex="1" parent="1">
          <mxGeometry x="230" y="230" width="80" height="30" as="geometry" />
        </mxCell>
        <mxCell id="NRmDLluQtz4o5GjEV-Sm-3" value="" style="endArrow=none;dashed=1;html=1;rounded=0;entryX=0.5;entryY=1;entryDx=0;entryDy=0;exitX=0.176;exitY=1.004;exitDx=0;exitDy=0;exitPerimeter=0;" edge="1" parent="1" source="NRmDLluQtz4o5GjEV-Sm-1" target="NRmDLluQtz4o5GjEV-Sm-2">
          <mxGeometry width="50" height="50" relative="1" as="geometry">
            <mxPoint x="240" y="370" as="sourcePoint" />
            <mxPoint x="300" y="320" as="targetPoint" />
          </mxGeometry>
        </mxCell>
        <mxCell id="NRmDLluQtz4o5GjEV-Sm-5" value="" style="endArrow=classic;html=1;rounded=0;" edge="1" parent="1">
          <mxGeometry width="50" height="50" relative="1" as="geometry">
            <mxPoint x="270" y="320" as="sourcePoint" />
            <mxPoint x="580" y="320" as="targetPoint" />
          </mxGeometry>
        </mxCell>
        <mxCell id="NRmDLluQtz4o5GjEV-Sm-6" value="1.url请求" style="text;html=1;align=center;verticalAlign=middle;whiteSpace=wrap;rounded=0;fillColor=#ffe6cc;strokeColor=#d79b00;" vertex="1" parent="1">
          <mxGeometry x="400" y="300" width="60" height="30" as="geometry" />
        </mxCell>
        <mxCell id="NRmDLluQtz4o5GjEV-Sm-7" value="服务端" style="rounded=0;whiteSpace=wrap;html=1;" vertex="1" parent="1">
          <mxGeometry x="545" y="230" width="80" height="30" as="geometry" />
        </mxCell>
        <mxCell id="NRmDLluQtz4o5GjEV-Sm-8" value="" style="endArrow=none;dashed=1;html=1;dashPattern=1 3;strokeWidth=2;rounded=0;entryX=0.5;entryY=1;entryDx=0;entryDy=0;exitX=0.523;exitY=1.006;exitDx=0;exitDy=0;exitPerimeter=0;" edge="1" parent="1" source="NRmDLluQtz4o5GjEV-Sm-10">
          <mxGeometry width="50" height="50" relative="1" as="geometry">
            <mxPoint x="580" y="760" as="sourcePoint" />
            <mxPoint x="579.98" y="259.3" as="targetPoint" />
            <Array as="points">
              <mxPoint x="586" y="259" />
            </Array>
          </mxGeometry>
        </mxCell>
        <mxCell id="NRmDLluQtz4o5GjEV-Sm-11" value="" style="endArrow=none;dashed=1;html=1;dashPattern=1 3;strokeWidth=2;rounded=0;entryX=0.5;entryY=1;entryDx=0;entryDy=0;exitX=0.523;exitY=1.006;exitDx=0;exitDy=0;exitPerimeter=0;" edge="1" parent="1" source="NRmDLluQtz4o5GjEV-Sm-16" target="NRmDLluQtz4o5GjEV-Sm-10">
          <mxGeometry width="50" height="50" relative="1" as="geometry">
            <mxPoint x="586" y="768" as="sourcePoint" />
            <mxPoint x="579.98" y="259.3" as="targetPoint" />
          </mxGeometry>
        </mxCell>
        <mxCell id="NRmDLluQtz4o5GjEV-Sm-10" value="" style="rounded=0;whiteSpace=wrap;html=1;fillColor=#ffe6cc;strokeColor=#d79b00;" vertex="1" parent="1">
          <mxGeometry x="560" y="340" width="50" height="70" as="geometry" />
        </mxCell>
        <mxCell id="NRmDLluQtz4o5GjEV-Sm-12" value="" style="endArrow=classic;html=1;rounded=0;exitX=0.988;exitY=0.115;exitDx=0;exitDy=0;exitPerimeter=0;entryX=1;entryY=1;entryDx=0;entryDy=0;" edge="1" parent="1">
          <mxGeometry relative="1" as="geometry">
            <mxPoint x="610.0000000000001" y="347.02999999999986" as="sourcePoint" />
            <mxPoint x="610" y="403" as="targetPoint" />
            <Array as="points">
              <mxPoint x="670" y="347" />
              <mxPoint x="670" y="403" />
            </Array>
          </mxGeometry>
        </mxCell>
        <mxCell id="NRmDLluQtz4o5GjEV-Sm-15" value="2.根据不同的url映射&lt;br&gt;不同的方法" style="edgeLabel;html=1;align=center;verticalAlign=middle;resizable=0;points=[];" vertex="1" connectable="0" parent="NRmDLluQtz4o5GjEV-Sm-12">
          <mxGeometry x="-0.0478" y="1" relative="1" as="geometry">
            <mxPoint as="offset" />
          </mxGeometry>
        </mxCell>
        <mxCell id="NRmDLluQtz4o5GjEV-Sm-17" value="" style="endArrow=none;dashed=1;html=1;dashPattern=1 3;strokeWidth=2;rounded=0;entryX=0.5;entryY=1;entryDx=0;entryDy=0;exitX=0.523;exitY=1.006;exitDx=0;exitDy=0;exitPerimeter=0;" edge="1" parent="1" source="NRmDLluQtz4o5GjEV-Sm-37" target="NRmDLluQtz4o5GjEV-Sm-16">
          <mxGeometry width="50" height="50" relative="1" as="geometry">
            <mxPoint x="586" y="784" as="sourcePoint" />
            <mxPoint x="585" y="410" as="targetPoint" />
          </mxGeometry>
        </mxCell>
        <mxCell id="NRmDLluQtz4o5GjEV-Sm-16" value="" style="rounded=0;whiteSpace=wrap;html=1;fillColor=#ffe6cc;strokeColor=#d79b00;" vertex="1" parent="1">
          <mxGeometry x="560" y="430" width="50" height="70" as="geometry" />
        </mxCell>
        <mxCell id="NRmDLluQtz4o5GjEV-Sm-18" value="" style="endArrow=classic;html=1;rounded=0;exitX=0.988;exitY=0.115;exitDx=0;exitDy=0;exitPerimeter=0;entryX=1;entryY=1;entryDx=0;entryDy=0;" edge="1" parent="1">
          <mxGeometry relative="1" as="geometry">
            <mxPoint x="610.0000000000001" y="437.02999999999986" as="sourcePoint" />
            <mxPoint x="610" y="493" as="targetPoint" />
            <Array as="points">
              <mxPoint x="670" y="437" />
              <mxPoint x="670" y="493" />
            </Array>
          </mxGeometry>
        </mxCell>
        <mxCell id="NRmDLluQtz4o5GjEV-Sm-19" value="3.根据不同的场景&lt;br&gt;获取填充静态模板函数的&lt;br&gt;参数" style="edgeLabel;html=1;align=center;verticalAlign=middle;resizable=0;points=[];" vertex="1" connectable="0" parent="NRmDLluQtz4o5GjEV-Sm-18">
          <mxGeometry x="-0.0478" y="1" relative="1" as="geometry">
            <mxPoint as="offset" />
          </mxGeometry>
        </mxCell>
        <mxCell id="NRmDLluQtz4o5GjEV-Sm-20" value="" style="rounded=0;whiteSpace=wrap;html=1;fillColor=#ffe6cc;strokeColor=#d79b00;" vertex="1" parent="1">
          <mxGeometry x="560" y="530" width="50" height="110" as="geometry" />
        </mxCell>
        <mxCell id="NRmDLluQtz4o5GjEV-Sm-25" value="" style="endArrow=classic;html=1;rounded=0;exitX=0.988;exitY=0.115;exitDx=0;exitDy=0;exitPerimeter=0;entryX=1;entryY=1;entryDx=0;entryDy=0;" edge="1" parent="1">
          <mxGeometry relative="1" as="geometry">
            <mxPoint x="610.0000000000001" y="537.0299999999999" as="sourcePoint" />
            <mxPoint x="610" y="593" as="targetPoint" />
            <Array as="points">
              <mxPoint x="670" y="537" />
              <mxPoint x="670" y="593" />
            </Array>
          </mxGeometry>
        </mxCell>
        <mxCell id="NRmDLluQtz4o5GjEV-Sm-26" value="4.获取前端对应的&lt;br&gt;服务url" style="edgeLabel;html=1;align=center;verticalAlign=middle;resizable=0;points=[];" vertex="1" connectable="0" parent="NRmDLluQtz4o5GjEV-Sm-25">
          <mxGeometry x="-0.0478" y="1" relative="1" as="geometry">
            <mxPoint as="offset" />
          </mxGeometry>
        </mxCell>
        <mxCell id="NRmDLluQtz4o5GjEV-Sm-28" value="静态资源server" style="rounded=0;whiteSpace=wrap;html=1;" vertex="1" parent="1">
          <mxGeometry x="780" y="230" width="80" height="30" as="geometry" />
        </mxCell>
        <mxCell id="NRmDLluQtz4o5GjEV-Sm-29" value="" style="endArrow=none;dashed=1;html=1;rounded=0;entryX=0.5;entryY=1;entryDx=0;entryDy=0;exitX=0.176;exitY=1.004;exitDx=0;exitDy=0;exitPerimeter=0;" edge="1" parent="1">
          <mxGeometry width="50" height="50" relative="1" as="geometry">
            <mxPoint x="819.58" y="863" as="sourcePoint" />
            <mxPoint x="819.58" y="260" as="targetPoint" />
          </mxGeometry>
        </mxCell>
        <mxCell id="NRmDLluQtz4o5GjEV-Sm-30" value="" style="rounded=0;whiteSpace=wrap;html=1;fillColor=#ffe6cc;strokeColor=#d79b00;" vertex="1" parent="1">
          <mxGeometry x="795" y="610" width="50" height="90" as="geometry" />
        </mxCell>
        <mxCell id="NRmDLluQtz4o5GjEV-Sm-31" value="" style="endArrow=classic;html=1;rounded=0;entryX=0;entryY=0.25;entryDx=0;entryDy=0;exitX=1.057;exitY=0.927;exitDx=0;exitDy=0;exitPerimeter=0;" edge="1" parent="1" source="NRmDLluQtz4o5GjEV-Sm-20" target="NRmDLluQtz4o5GjEV-Sm-30">
          <mxGeometry width="50" height="50" relative="1" as="geometry">
            <mxPoint x="650" y="570" as="sourcePoint" />
            <mxPoint x="700" y="520" as="targetPoint" />
          </mxGeometry>
        </mxCell>
        <mxCell id="NRmDLluQtz4o5GjEV-Sm-32" value="5.请求对应的资源url" style="edgeLabel;html=1;align=center;verticalAlign=middle;resizable=0;points=[];" vertex="1" connectable="0" parent="NRmDLluQtz4o5GjEV-Sm-31">
          <mxGeometry x="-0.0137" y="-3" relative="1" as="geometry">
            <mxPoint as="offset" />
          </mxGeometry>
        </mxCell>
        <mxCell id="NRmDLluQtz4o5GjEV-Sm-34" value="" style="endArrow=classic;html=1;rounded=0;" edge="1" parent="1">
          <mxGeometry width="50" height="50" relative="1" as="geometry">
            <mxPoint x="800" y="680" as="sourcePoint" />
            <mxPoint x="590" y="680" as="targetPoint" />
          </mxGeometry>
        </mxCell>
        <mxCell id="NRmDLluQtz4o5GjEV-Sm-35" value="6.返回对应的模板js路径" style="edgeLabel;html=1;align=center;verticalAlign=middle;resizable=0;points=[];" vertex="1" connectable="0" parent="NRmDLluQtz4o5GjEV-Sm-34">
          <mxGeometry x="-0.027" y="3" relative="1" as="geometry">
            <mxPoint as="offset" />
          </mxGeometry>
        </mxCell>
        <mxCell id="NRmDLluQtz4o5GjEV-Sm-38" value="" style="endArrow=none;dashed=1;html=1;dashPattern=1 3;strokeWidth=2;rounded=0;entryX=0.5;entryY=1;entryDx=0;entryDy=0;exitX=0.523;exitY=1.006;exitDx=0;exitDy=0;exitPerimeter=0;" edge="1" parent="1" source="NRmDLluQtz4o5GjEV-Sm-1" target="NRmDLluQtz4o5GjEV-Sm-37">
          <mxGeometry width="50" height="50" relative="1" as="geometry">
            <mxPoint x="586" y="865" as="sourcePoint" />
            <mxPoint x="585" y="500" as="targetPoint" />
          </mxGeometry>
        </mxCell>
        <mxCell id="NRmDLluQtz4o5GjEV-Sm-37" value="" style="rounded=0;whiteSpace=wrap;html=1;fillColor=#ffe6cc;strokeColor=#d79b00;" vertex="1" parent="1">
          <mxGeometry x="560" y="710" width="50" height="90" as="geometry" />
        </mxCell>
        <mxCell id="NRmDLluQtz4o5GjEV-Sm-43" value="" style="endArrow=classic;html=1;rounded=0;exitX=0.988;exitY=0.115;exitDx=0;exitDy=0;exitPerimeter=0;entryX=1;entryY=1;entryDx=0;entryDy=0;" edge="1" parent="1">
          <mxGeometry relative="1" as="geometry">
            <mxPoint x="610.0000000000001" y="727.0299999999999" as="sourcePoint" />
            <mxPoint x="610" y="783" as="targetPoint" />
            <Array as="points">
              <mxPoint x="670" y="727" />
              <mxPoint x="670" y="783" />
            </Array>
          </mxGeometry>
        </mxCell>
        <mxCell id="NRmDLluQtz4o5GjEV-Sm-44" value="7.使用公共模板，拼接js&lt;br&gt;以及其它的变量" style="edgeLabel;html=1;align=center;verticalAlign=middle;resizable=0;points=[];" vertex="1" connectable="0" parent="NRmDLluQtz4o5GjEV-Sm-43">
          <mxGeometry x="-0.0478" y="1" relative="1" as="geometry">
            <mxPoint as="offset" />
          </mxGeometry>
        </mxCell>
        <mxCell id="NRmDLluQtz4o5GjEV-Sm-45" value="" style="endArrow=classic;html=1;rounded=0;" edge="1" parent="1">
          <mxGeometry width="50" height="50" relative="1" as="geometry">
            <mxPoint x="560" y="780" as="sourcePoint" />
            <mxPoint x="270" y="780" as="targetPoint" />
          </mxGeometry>
        </mxCell>
        <mxCell id="NRmDLluQtz4o5GjEV-Sm-46" value="8.返回拼接后的html文件" style="edgeLabel;html=1;align=center;verticalAlign=middle;resizable=0;points=[];" vertex="1" connectable="0" parent="NRmDLluQtz4o5GjEV-Sm-45">
          <mxGeometry x="0.0724" y="4" relative="1" as="geometry">
            <mxPoint as="offset" />
          </mxGeometry>
        </mxCell>
      </root>
    </mxGraphModel>
  </diagram>
  <diagram id="ngOydFARjUZ1m4rTX_ou" name="整体流程">
    <mxGraphModel dx="1426" dy="759" grid="1" gridSize="10" guides="1" tooltips="1" connect="1" arrows="1" fold="1" page="1" pageScale="1" pageWidth="827" pageHeight="1169" math="0" shadow="0">
      <root>
        <mxCell id="0" />
        <mxCell id="1" parent="0" />
      </root>
    </mxGraphModel>
  </diagram>
</mxfile>
